<svg width="80" height="74" viewBox="0 0 80 74" fill="none" xmlns="http://www.w3.org/2000/svg">
<path d="M37.8194 42.8634C36.5701 42.1466 35.8887 41.3342 30.0057 33.7357L23.5775 25.3966L29.3242 25.2771C32.5043 25.2054 35.2073 25.1815 35.3436 25.2293C35.4798 25.2771 37.0699 27.1409 38.887 29.4109C40.7042 31.6808 43.9977 35.7668 46.201 38.4907C48.4043 41.2147 50.1988 43.5086 50.1988 43.5564C50.1988 43.628 47.7229 43.6758 44.7019 43.6758H39.1823L37.8194 42.8634Z" fill="#130CB7"/>
<path d="M58.3759 24.7993V6.63948H54.5145H50.653V4.72793V2.81638H60.3066H69.9602V22.8877V42.959H64.1681H58.3759V24.7993Z" fill="#130CB7"/>
<path d="M21.8058 20.6894C21.8058 18.6106 21.8966 18.0371 22.3509 17.0336C22.8734 15.791 23.7819 14.8353 25.0766 14.0945C25.6672 13.76 26.6894 13.6644 31.9137 13.5689C38.6371 13.4494 39.1141 13.3299 39.4321 11.9918C39.5911 11.2989 39.205 10.3431 38.6371 10.0803C38.4327 9.9847 32.9131 9.84134 26.3486 9.76965L14.4236 9.62629L12.9017 8.83777C10.1079 7.40411 8.15443 4.51288 7.791 1.33492L7.65472 0.187988H23.4412C33.2311 0.187988 39.7047 0.283566 40.4543 0.426933C43.498 1.04819 46.0647 3.05532 47.314 5.87486L48.0409 7.47579V11.6573V15.8388L47.314 17.4637C46.0193 20.331 43.5888 22.2903 40.5678 22.8638C39.7274 23.0311 35.8432 23.1266 30.5054 23.1266H21.8058V20.6894Z" fill="#130CB7"/>
<path d="M16.3544 64.0099C14.3555 63.3409 13.2879 62.0506 13.0381 59.9957C12.5156 55.7186 15.0597 52.9946 18.9438 53.592C21.0335 53.9265 22.2601 55.4796 22.5781 58.2036L22.7371 59.4461H19.1937C15.8092 59.4461 15.6729 59.47 15.6729 59.924C15.6729 60.1868 15.8092 60.7842 15.9909 61.2382C16.2408 61.8594 16.5134 62.0984 17.1721 62.2895C18.2851 62.6002 19.4208 62.1462 19.6252 61.2621C19.7615 60.6886 19.8524 60.6408 21.1244 60.6408H22.4873L22.351 61.3099C22.0784 62.3851 21.6014 62.9825 20.4884 63.5559C19.3527 64.1055 17.3311 64.3444 16.3544 64.0099ZM19.7615 56.9372C19.7615 55.5752 17.8308 54.6194 16.786 55.4557C16.3089 55.8141 15.6502 57.2 15.8319 57.3912C15.9228 57.4629 16.8314 57.5345 17.8762 57.5345C19.7388 57.5345 19.7615 57.5345 19.7615 56.9372Z" fill="#57B602"/>
<path d="M32.5951 63.8427C31.5048 63.4126 30.4827 62.4568 30.0738 61.4294C29.8921 60.9993 29.7558 59.8523 29.7558 58.8966C29.7558 56.7222 30.3464 55.3602 31.7774 54.3088C32.6405 53.6876 32.9131 53.6159 34.4804 53.592C36.343 53.592 37.3878 53.9982 38.2056 55.0018C38.7053 55.623 39.2958 57.5824 39.2958 58.6576V59.4461H35.7524H32.2089L32.3452 60.0435C32.7995 61.8834 33.2084 62.3374 34.5258 62.3613C35.5025 62.3613 36.2294 61.9073 36.4565 61.0948C36.5701 60.7125 36.82 60.6408 37.8421 60.6408C38.9778 60.6408 39.0687 60.6886 39.0687 61.1904C39.0687 61.4772 38.7507 62.1223 38.3646 62.6002C37.2288 64.0578 34.6167 64.6312 32.5951 63.8427ZM36.5701 57.2478C36.5701 56.6266 35.6615 55.3841 35.0937 55.2407C34.1851 55.0018 33.4128 55.3363 32.9358 56.1726C32.1862 57.4629 32.2771 57.5346 34.5258 57.5346C36.0023 57.5346 36.5701 57.4629 36.5701 57.2478Z" fill="#57B602"/>
<path d="M44.2703 63.8904C42.1125 63.078 41.1358 61.5727 41.113 59.0638C41.113 56.6266 41.8172 55.1451 43.4526 54.1654C44.2249 53.7114 44.7246 53.6158 46.1102 53.6158C48.4952 53.6158 49.5855 54.2849 50.1534 56.077C50.4941 57.1283 50.3578 57.2956 49.2221 57.2956C48.1091 57.2956 47.9273 57.1761 47.4731 56.2203C46.7462 54.7628 44.9518 54.8345 44.2476 56.3398C43.7706 57.3195 43.7025 59.8045 44.1113 60.8081C44.6111 62.0267 44.9745 62.3134 46.0421 62.3134C47.0188 62.3134 47.0642 62.2895 47.4958 61.2382L47.9501 60.1629H49.1766C50.5395 60.1629 50.5168 60.139 50.1988 61.3815C49.6309 63.532 46.6781 64.7984 44.2703 63.8904Z" fill="#57B602"/>
<path d="M55.105 63.8666C53.8103 63.3887 53.1289 62.7913 52.4702 61.5727C52.0159 60.7125 51.9023 60.2107 51.925 58.8487C51.9477 56.531 52.7428 55.0973 54.628 53.9982C55.5593 53.4725 58.4668 53.4725 59.3981 53.9982C61.0108 54.9062 62.0102 56.6982 62.0102 58.6815C62.0102 60.5691 61.7831 61.286 60.8518 62.409C59.4662 64.0816 57.1721 64.6551 55.105 63.8666ZM58.4668 61.5966C60.0795 59.5656 59.0801 55.384 56.9904 55.384C55.4912 55.384 54.7416 56.531 54.7416 58.8248C54.7416 61.1426 55.4912 62.3134 56.9904 62.3134C57.6945 62.3134 57.9898 62.1701 58.4668 61.5966Z" fill="#57B602"/>
<path d="M4.49744 57.8452L4.4293 51.6804L2.22601 51.6087L0 51.5371V50.3662V49.1715H6.01931H12.0386V50.3662V51.5371L9.83532 51.6087L7.60932 51.6804L7.54118 57.8452L7.49574 63.9861H6.01931H4.54288L4.49744 57.8452Z" fill="#57B602"/>
<path d="M24.7587 56.5788V49.1715H26.1215H27.4844V56.5788V63.9861H26.1215H24.7587V56.5788Z" fill="#57B602"/>
<path d="M64.2816 58.8488V53.7115H65.5309C66.7121 53.7115 66.7802 53.7354 66.7802 54.2849C66.7802 54.9779 67.1209 55.2885 67.3935 54.8345C67.6888 54.3088 68.6655 53.7592 69.3924 53.7115C71.1186 53.592 71.5502 53.7114 72.4588 54.5716C73.2084 55.2885 73.3901 55.3602 73.5036 55.0495C73.9352 53.8787 77.456 53.2336 78.5008 54.1415C79.7047 55.169 79.841 55.6947 79.9318 59.9718L80 63.9861H78.6144H77.2288V60.4736C77.2288 58.1319 77.1152 56.746 76.9335 56.3398C76.5701 55.5991 75.389 55.2168 74.594 55.5991C73.6399 56.0531 73.3674 57.1522 73.3674 60.7603V63.9861H72.0045H70.6416V60.1868V56.3637L70.0511 55.8858C68.7564 54.8345 67.2118 55.623 66.9165 57.4868C66.8483 57.9647 66.7802 59.6373 66.7802 61.1904V63.9861H65.5309H64.2816V58.8488Z" fill="#57B602"/>
<path d="M13.4015 43.6997C12.3566 43.4607 11.4935 42.8634 11.1755 42.0988C10.8575 41.4058 10.8348 31.418 11.1073 26.1851C11.2891 22.5531 11.4481 22.1708 12.9245 21.5257C13.6286 21.215 13.7649 21.2389 14.9234 21.8124C15.8546 22.2903 16.5815 22.9832 17.8989 24.6319C18.8529 25.8028 22.3282 30.056 25.6218 34.0702C29.6195 38.9686 31.573 41.5253 31.573 41.9076C31.573 42.2182 31.2777 42.6961 30.8688 43.0545L30.1647 43.6758H24.0091C20.6019 43.6758 17.0131 43.7236 16.0136 43.7953C15.0142 43.8431 13.8331 43.8192 13.4015 43.6997Z" fill="#57B602"/>
<path d="M23.4866 73.4483C22.8734 72.9704 23.2595 72.6836 23.9864 73.0659C24.6905 73.4722 25.2811 73.1615 25.3946 72.3252C25.4628 71.8712 25.4174 71.7995 25.1902 72.0624C24.7586 72.4925 23.7592 72.4208 23.3276 71.919C22.7371 71.2261 22.8279 69.9119 23.5094 69.2428C24.0318 68.7411 24.1681 68.6933 24.7586 68.9322C25.1448 69.0756 25.4401 69.0995 25.4401 68.98C25.4401 68.8844 25.5991 68.8366 25.7808 68.9083C26.0306 69.0278 26.1215 69.4579 26.1215 70.6526C26.1215 72.7075 25.9852 73.1854 25.3038 73.52C24.5542 73.8784 24.0318 73.8545 23.4866 73.4483ZM25.2356 71.2978C25.7581 70.103 25.0085 68.9561 24.0545 69.4818C23.6229 69.7446 23.4866 70.7004 23.7592 71.4889C23.9864 72.0863 24.9631 71.9668 25.2356 71.2978Z" fill="#130CB7"/>
<path d="M15.2413 72.373C15.0596 72.2535 14.8779 71.6084 14.8098 70.8199C14.7643 70.0791 14.6281 69.4818 14.5145 69.4818C14.4009 69.4818 14.3101 69.3145 14.3101 69.0756C14.3101 68.8605 14.3782 68.741 14.4463 68.8366C14.5372 68.9083 14.7871 68.7411 15.0142 68.4543C15.3776 68.0003 15.4231 67.9764 15.4458 68.3587C15.4458 68.5738 15.6048 68.7649 15.7865 68.7649C15.9682 68.7649 16.1272 68.9322 16.1272 69.1234C16.1272 69.3145 15.9682 69.4818 15.7865 69.4818C15.5366 69.4818 15.4458 69.7685 15.4458 70.7004C15.4458 71.7279 15.5139 71.9429 15.9228 72.0385C16.2862 72.1341 16.3089 72.2296 16.0818 72.373C15.7183 72.6359 15.6275 72.6359 15.2413 72.373Z" fill="#130CB7"/>
<path d="M27.4389 72.3252C27.1891 72.1819 27.0301 71.7995 27.0301 71.3933C27.0301 70.8199 27.1437 70.6526 27.6661 70.5331C28.9154 70.2464 29.0744 70.1508 29.0744 69.8163C29.0744 69.2906 28.4384 69.1473 27.8024 69.4818C27.5071 69.6729 27.2118 69.7446 27.1664 69.6968C26.9165 69.4579 27.439 69.0039 28.0977 68.8605C29.188 68.6216 29.7558 69.3862 29.7558 71.0349C29.7558 72.2296 29.7104 72.3491 29.2561 72.3252C28.9608 72.3252 28.5292 72.373 28.2794 72.4447C28.0295 72.5164 27.6434 72.4686 27.4389 72.3252ZM28.8018 71.8234C29.5968 70.9871 28.7337 70.2942 27.8251 71.011C27.4617 71.2978 27.439 71.3933 27.6888 71.7279C28.0522 72.1819 28.4384 72.2057 28.8018 71.8234Z" fill="#130CB7"/>
<path d="M35.0028 71.9429C34.3895 71.1305 34.4804 69.9119 35.2072 69.1473C35.5934 68.7172 35.7524 68.6933 36.343 68.9322C37.0244 69.1951 37.0244 69.1951 37.0244 68.3826C37.0244 67.8092 37.138 67.5702 37.3651 67.5702C37.6377 67.5702 37.7058 68.0003 37.7058 69.9597C37.7058 72.2774 37.6831 72.3491 37.2061 72.3252C36.9108 72.3252 36.4111 72.3969 36.0931 72.4686C35.6161 72.612 35.3889 72.4925 35.0028 71.9429ZM36.7518 71.8234C36.9108 71.6562 37.0244 71.1544 37.0244 70.6765C37.0244 69.3623 36.2975 68.8366 35.5707 69.6251C34.8892 70.3181 35.2754 72.1102 36.0704 72.1102C36.2975 72.1102 36.5928 71.9907 36.7518 71.8234Z" fill="#130CB7"/>
<path d="M45.8603 72.3253C44.0431 71.6084 44.3384 67.9526 46.2464 67.5464C48.1998 67.1641 49.4718 69.2429 48.5178 71.2261C48.1998 71.8474 48.1998 71.8713 48.7904 71.8713C49.1311 71.8713 49.2901 71.9668 49.1766 72.0863C48.8358 72.4208 46.519 72.5881 45.8603 72.3253ZM47.473 71.6801C47.8137 71.3934 48.0181 70.8916 48.0863 70.1509C48.1998 69.1712 48.1317 68.9561 47.6093 68.4066C46.9733 67.7375 46.2464 67.7614 45.724 68.4782C45.247 69.0995 45.3606 71.0827 45.883 71.6323C46.4508 72.2297 46.8143 72.2297 47.473 71.6801Z" fill="#130CB7"/>
<path d="M50.2214 72.1341C49.6309 71.5128 49.5173 69.0039 50.0852 69.0039C50.3123 69.0039 50.4259 69.3623 50.4713 70.342C50.6076 72.9226 52.0159 72.6359 52.0159 70.0314C52.0159 69.0278 52.084 68.8127 52.3566 68.9083C52.6065 69.0278 52.6973 69.4579 52.6973 70.7004C52.6973 72.2536 52.6746 72.3491 52.1976 72.3252C51.9023 72.3252 51.448 72.373 51.1754 72.4686C50.8347 72.5881 50.5622 72.4925 50.2214 72.1341Z" fill="#130CB7"/>
<path d="M54.1283 72.3013C53.1061 71.7757 53.674 70.4376 54.9006 70.4376C55.5366 70.4376 55.9 70.0792 55.741 69.6491C55.5593 69.1473 54.9006 69.1234 54.5144 69.6013C54.2873 69.888 54.151 69.9119 53.9693 69.7207C53.6513 69.3862 54.3782 68.765 55.0823 68.765C56.0136 68.765 56.3543 69.2906 56.4679 70.8677C56.5814 72.2774 56.5587 72.3491 56.059 72.3252C55.7637 72.3252 55.3322 72.373 55.0823 72.4447C54.8324 72.5164 54.4009 72.4447 54.1283 72.3013ZM55.6502 71.6562C55.9909 70.9632 55.9227 70.6765 55.4457 70.6765C54.7189 70.6765 54.2873 70.9394 54.2873 71.3695C54.2873 72.2297 55.2413 72.4208 55.6502 71.6562Z" fill="#130CB7"/>
<path d="M61.1016 72.1102C60.6019 71.5845 60.511 70.5331 60.9199 69.6251C61.2379 68.8844 61.7603 68.6694 62.5553 68.98C63.1232 69.2189 63.1459 69.195 63.1459 68.4065C63.1459 67.8331 63.2595 67.5702 63.4866 67.5702C63.7592 67.5702 63.8273 68.0003 63.8273 69.9835V72.3969L63.2822 72.2535C62.9642 72.1818 62.6462 72.2057 62.5781 72.3491C62.3509 72.7314 61.5786 72.6119 61.1016 72.1102ZM63.0096 71.3694C63.4412 70.0552 62.5099 68.7649 61.6695 69.4818C61.2606 69.8402 61.2152 71.4172 61.6013 71.8234C62.0556 72.3013 62.7825 72.0624 63.0096 71.3694Z" fill="#130CB7"/>
<path d="M65.2584 72.3491C64.9177 72.2058 64.736 71.919 64.736 71.5606C64.736 70.8438 65.054 70.5571 66.0534 70.3181C66.4623 70.2225 66.7803 70.0075 66.7803 69.8163C66.7803 69.3145 66.1215 69.1234 65.5991 69.4579C64.9858 69.8402 64.736 69.5296 65.2811 69.0995C65.849 68.6694 66.326 68.6694 66.962 69.1473C67.3708 69.4579 67.4617 69.7207 67.4617 70.9155C67.4617 72.2536 67.4163 72.3491 66.962 72.3252C66.6667 72.3013 66.2805 72.3491 66.0988 72.4208C65.9171 72.4925 65.531 72.4686 65.2584 72.3491ZM66.5077 71.8235C67.3027 70.9871 66.4395 70.2942 65.531 71.0111C65.1675 71.2978 65.1448 71.3934 65.3947 71.7279C65.7581 72.1819 66.1442 72.2058 66.5077 71.8235Z" fill="#130CB7"/>
<path d="M69.1426 72.4208C68.2567 71.7517 68.2112 69.9119 69.0744 69.0995C69.4605 68.7411 69.6423 68.7172 70.2101 68.9322C70.8688 69.195 70.8688 69.195 70.8688 68.3826C70.8688 67.8092 70.9824 67.5702 71.2096 67.5702C71.4821 67.5702 71.5503 68.0003 71.5503 69.9597C71.5503 72.2774 71.5276 72.3491 71.0506 72.3252C70.7553 72.3252 70.2783 72.373 69.9603 72.4686C69.6423 72.5403 69.2788 72.5164 69.1426 72.4208ZM70.6417 71.6562C71.3686 70.1986 70.3918 68.5738 69.4151 69.6251C68.7337 70.342 69.1198 72.1102 69.9603 72.1102C70.2101 72.1102 70.5054 71.8951 70.6417 71.6562Z" fill="#130CB7"/>
<path d="M6.58716 69.9597V67.5702H8.06359C8.90402 67.5702 9.54002 67.6658 9.54002 67.8092C9.54002 67.9525 9.08574 68.0481 8.51788 68.0481C7.95002 68.0481 7.49573 68.1198 7.47302 68.2393C7.47302 68.3348 7.42759 68.6455 7.35944 68.9561C7.26859 69.434 7.35945 69.4818 8.42702 69.4818C9.24474 69.4818 9.54003 69.5774 9.47188 69.7924C9.38103 70.0791 9.19931 70.1269 7.95002 70.1747C7.47302 70.1986 7.38216 70.3181 7.35944 71.0349L7.33673 71.8712H8.54059C9.22202 71.8712 9.76717 71.9907 9.76717 72.1102C9.76717 72.2535 9.08574 72.3491 8.17716 72.3491H6.58716V69.9597Z" fill="#130CB7"/>
<path d="M10.4486 70.7243C10.4486 68.98 10.5849 68.6216 11.0392 69.0278C11.2436 69.1951 11.448 69.1712 11.766 68.98C12.4702 68.526 13.3106 69.0039 13.4923 69.9597C13.7422 71.3456 13.6513 72.3491 13.2879 72.3491C13.038 72.3491 12.9472 72.0624 12.9472 71.2022C12.9472 69.8163 12.5383 69.1234 11.8796 69.3384C11.3572 69.5057 11.13 70.1269 11.13 71.465C11.13 72.0863 11.0392 72.3491 10.7893 72.3491C10.5168 72.3491 10.4486 72.0146 10.4486 70.7243Z" fill="#130CB7"/>
<path d="M16.8086 70.7004C16.8086 69.1472 17.0357 68.4304 17.3765 69.0039C17.4673 69.1711 17.649 69.1711 17.9443 69.0039C18.5122 68.6933 18.6257 68.6933 18.6257 69.1234C18.6257 69.3145 18.4213 69.4818 18.1942 69.4818C17.6717 69.4818 17.49 69.9358 17.49 71.2977C17.49 72.0624 17.3992 72.3491 17.1493 72.3491C16.8767 72.3491 16.8086 72.0146 16.8086 70.7004Z" fill="#130CB7"/>
<path d="M19.8524 72.1819C19.4662 71.8951 19.0801 71.011 19.0801 70.4376C19.0801 69.7685 20.0568 68.765 20.7382 68.765C21.3288 68.765 21.8967 69.3145 22.1238 70.1508C22.2828 70.6526 22.2374 70.6765 21.0335 70.6765C19.6479 70.6765 19.3981 70.9871 20.1704 71.704C20.7382 72.2536 21.0335 72.2058 21.4424 71.5845C21.8512 70.9871 22.2601 71.2022 21.8967 71.8235C21.6241 72.2536 20.2839 72.4925 19.8524 72.1819ZM21.5787 69.9836C21.5787 69.2189 20.1704 69.0995 19.8978 69.8402C19.8069 70.1269 19.9887 70.1986 20.6701 70.1986C21.1698 70.1986 21.5787 70.103 21.5787 69.9836Z" fill="#130CB7"/>
<path d="M30.6644 70.7004C30.6644 69.1473 30.8915 68.4305 31.2322 69.0039C31.3231 69.1712 31.5275 69.1473 31.8455 68.98C32.9812 68.3349 33.8217 69.3862 33.7535 71.3695C33.7081 72.6836 33.163 72.5881 33.163 71.2739C33.163 69.4579 32.5269 68.7411 31.7092 69.6252C31.4821 69.8641 31.3458 70.4137 31.3458 71.1783C31.3458 72.0624 31.2549 72.3491 31.0051 72.3491C30.7325 72.3491 30.6644 72.0146 30.6644 70.7004Z" fill="#130CB7"/>
<path d="M39.0687 71.8712C37.9557 70.7004 39.0006 68.5499 40.5451 68.8605C40.9086 68.9561 41.3628 69.1712 41.5218 69.3384C41.9761 69.7924 41.908 71.3216 41.431 71.8951C40.9086 72.4925 39.6593 72.4925 39.0687 71.8712ZM40.6587 71.8712C41.2493 71.5367 41.431 70.5092 40.9994 69.8163C40.6133 69.1951 40 69.0756 39.5684 69.5296C39.1823 69.9358 39.2277 71.2978 39.6593 71.7279C40.0681 72.1819 40.1136 72.1818 40.6587 71.8712Z" fill="#130CB7"/>
<path d="M57.4673 69.9597C57.4673 68.0003 57.5355 67.5702 57.8081 67.5702C58.0806 67.5702 58.1488 68.0003 58.1488 69.9597C58.1488 71.919 58.0806 72.3491 57.8081 72.3491C57.5355 72.3491 57.4673 71.919 57.4673 69.9597Z" fill="#130CB7"/>
<path d="M59.1028 70.6287C59.1482 69.6729 59.2845 68.8844 59.3981 68.8844C59.5344 68.8844 59.6479 69.6729 59.6934 70.6287C59.7388 72.0624 59.6934 72.3491 59.3981 72.3491C59.1028 72.3491 59.0573 72.0624 59.1028 70.6287Z" fill="#130CB7"/>
<path d="M72.9586 71.9668C71.8683 71.1544 72.6405 68.765 74.0034 68.765C74.6167 68.765 75.4117 69.5535 75.4117 70.1986C75.4117 70.7004 75.3663 70.7243 74.0034 70.7243C73.322 70.7243 73.1403 70.8199 73.1403 71.1783C73.1403 71.4172 73.3447 71.7279 73.6173 71.8951C74.0034 72.1102 74.1851 72.0624 74.6394 71.6084C75.2981 70.9633 75.6616 71.1783 75.071 71.8712C74.5713 72.4447 73.6627 72.4925 72.9586 71.9668ZM74.7303 69.8641C74.7303 69.3862 73.8671 69.1473 73.481 69.4818C72.9358 69.9597 73.0948 70.1986 73.9353 70.1986C74.4804 70.1986 74.7303 70.0791 74.7303 69.8641Z" fill="#130CB7"/>
<path d="M76.3203 71.9668C76.3203 71.7518 76.4338 71.6323 76.5928 71.6801C77.0017 71.8234 77.0698 72.3491 76.6837 72.3491C76.4792 72.3491 76.3203 72.1819 76.3203 71.9668Z" fill="#130CB7"/>
<path d="M59.0574 67.8092C59.0574 67.6897 59.2164 67.5702 59.3981 67.5702C59.5798 67.5702 59.7388 67.6897 59.7388 67.8092C59.7388 67.9525 59.5798 68.0481 59.3981 68.0481C59.2164 68.0481 59.0574 67.9525 59.0574 67.8092Z" fill="#130CB7"/>
</svg>
