<svg width="400" height="282" viewBox="0 0 400 282" fill="none" xmlns="http://www.w3.org/2000/svg">
<path d="M194.171 274.978L194.164 274.974L194.156 274.97C190.283 272.736 187.27 270.361 180.492 262.387C173.694 254.39 163.176 240.842 144.285 216.31L104.219 164.052L139.139 163.322L139.14 163.322C149.345 163.091 158.782 162.937 165.776 162.879C169.273 162.85 172.155 162.845 174.215 162.867C175.246 162.878 176.063 162.895 176.646 162.919C176.939 162.931 177.163 162.944 177.321 162.958C177.342 162.959 177.362 162.961 177.379 162.963C177.379 162.963 177.379 162.963 177.379 162.963C177.478 163.049 177.618 163.181 177.803 163.367C178.172 163.737 178.675 164.275 179.302 164.97C180.554 166.359 182.269 168.34 184.325 170.775C188.438 175.644 193.9 182.307 199.728 189.627C211.396 204.281 232.542 230.656 246.687 248.239C253.757 257.027 260.171 265.12 264.816 271.054C267.139 274.022 269.018 276.447 270.315 278.149C270.735 278.698 271.092 279.171 271.383 279.56C271.066 279.582 270.703 279.604 270.293 279.626C268.515 279.719 265.935 279.801 262.739 279.868C256.35 280.003 247.535 280.08 237.842 280.08H202.683L194.171 274.978ZM177.291 162.892C177.291 162.892 177.292 162.892 177.292 162.893C177.283 162.886 177.282 162.885 177.291 162.892Z" stroke="url(#paint0_linear_67_80)" stroke-width="2"/>
<path d="M326.629 42.0223V41.0223H325.629H300.839H277.048V29.6839V18.3454H338.024H399V146.899V275.453H362.815H326.629V159.238V42.0223Z" stroke="url(#paint1_linear_67_80)" stroke-width="2"/>
<path d="M95.2667 109.511L95.2611 109.523C93.828 112.706 92.9876 115.161 92.4947 118.457C91.9965 121.787 91.8494 126 91.8494 132.71V147.442H146.701C163.83 147.442 178.622 147.287 189.803 146.999C201.033 146.708 208.512 146.283 211.105 145.764L211.114 145.763C230.174 142.125 245.515 129.703 253.7 111.479L258.278 101.189V74.4108V47.6357L253.7 37.4985L253.697 37.4902C245.812 19.5993 229.609 6.85187 210.378 2.90324C209.265 2.69074 205.864 2.47928 200.281 2.29036C194.735 2.10271 187.132 1.93895 177.711 1.80404C158.869 1.53423 132.772 1.38 101.349 1.38H1.12514L1.86801 7.6657L1.86852 7.67005L1.86851 7.67005C4.16563 27.8654 16.5169 46.2286 34.1442 55.3229L34.1477 55.3247L43.7066 60.3041L120.026 61.2266C120.026 61.2266 120.026 61.2266 120.027 61.2266M95.2667 109.511L198.906 64.2316C197.594 63.6146 162.158 62.6893 120.015 62.2266L120.027 61.2266M95.2667 109.511L95.2719 109.499C98.5275 101.714 104.192 95.7006 112.345 91.0104L95.2667 109.511ZM120.027 61.2266C141.102 61.458 160.501 61.8051 174.798 62.1716C181.945 62.3548 187.822 62.5429 191.996 62.724C194.081 62.8145 195.749 62.9036 196.94 62.9899C197.535 63.0329 198.021 63.076 198.385 63.1195C198.567 63.1411 198.73 63.1642 198.867 63.1897C198.972 63.2092 199.161 63.2465 199.33 63.3257L120.027 61.2266Z" stroke="url(#paint2_linear_67_80)" stroke-width="2"/>
<path d="M23.5273 270.518L23.5205 270.502L23.513 270.485C23.4493 270.346 23.3444 269.958 23.2309 269.228C23.1229 268.533 23.0199 267.619 22.9228 266.502C22.7289 264.268 22.5633 261.27 22.4269 257.676C22.154 250.491 21.9992 240.971 21.9628 230.527C21.8899 209.639 22.2908 185.098 23.1645 168.235L23.1646 168.233C23.4563 162.372 23.7376 157.85 24.1415 154.292C24.5461 150.728 25.0676 148.193 25.8135 146.279C26.548 144.395 27.5022 143.109 28.8074 142.041C30.1415 140.95 31.8747 140.06 34.2341 139.024L34.2373 139.022C36.4912 138.023 37.6054 137.678 39.0098 137.883C40.5291 138.105 42.4454 138.976 46.2124 140.851C51.9883 143.832 56.5445 148.16 64.9848 158.78L64.9848 158.78L64.9908 158.788C71.1162 166.346 93.4276 193.799 114.573 219.71C127.404 235.517 136.946 247.535 143.279 255.907C146.446 260.095 148.801 263.357 150.36 265.719C151.14 266.901 151.71 267.84 152.08 268.546C152.266 268.9 152.392 269.178 152.47 269.388C152.555 269.617 152.555 269.692 152.555 269.667C152.555 270.399 152.19 271.482 151.426 272.731C150.679 273.952 149.614 275.226 148.373 276.32L148.371 276.322L144.134 280.08H104.995C83.1484 280.08 60.0826 280.387 53.6049 280.853C50.4236 281.005 46.9551 281.043 43.9437 280.948C40.8918 280.851 38.4167 280.62 37.1623 280.271L36.8942 281.234L37.1183 280.26C30.5977 278.76 25.4023 275.051 23.5273 270.518Z" stroke="url(#paint3_linear_67_80)" stroke-width="2"/>
<defs>
<linearGradient id="paint0_linear_67_80" x1="187.678" y1="161.853" x2="187.678" y2="281.08" gradientUnits="userSpaceOnUse">
<stop stop-color="white"/>
<stop offset="1" stop-color="white"/>
</linearGradient>
<linearGradient id="paint1_linear_67_80" x1="338.024" y1="17.3454" x2="338.024" y2="276.453" gradientUnits="userSpaceOnUse">
<stop stop-color="white"/>
<stop offset="1" stop-color="white"/>
</linearGradient>
<linearGradient id="paint2_linear_67_80" x1="129.639" y1="0.380005" x2="129.639" y2="148.442" gradientUnits="userSpaceOnUse">
<stop stop-color="white"/>
<stop offset="1" stop-color="white"/>
</linearGradient>
<linearGradient id="paint3_linear_67_80" x1="87.2545" y1="136.826" x2="87.2545" y2="282" gradientUnits="userSpaceOnUse">
<stop stop-color="white"/>
<stop offset="1" stop-color="white"/>
</linearGradient>
</defs>
</svg>
