<svg width="48" height="39" viewBox="0 0 48 39" fill="none" xmlns="http://www.w3.org/2000/svg">
<path d="M12.5623 22.6C13.8623 23.2 14.8623 24.15 15.5623 25.45C16.3623 26.65 16.7623 28 16.7623 29.5C16.7623 31.9 15.9123 33.95 14.2123 35.65C12.6123 37.25 10.6623 38.05 8.36231 38.05C6.16231 38.05 4.31231 37.35 2.81231 35.95C1.41231 34.45 0.712305 32.6 0.712305 30.4C0.712305 29.1 0.912305 27.9 1.31231 26.8C1.71231 25.7 2.41231 24.25 3.41231 22.45L14.9623 0.699993H22.1623L12.5623 22.6ZM38.0623 22.6C39.3623 23.2 40.3623 24.15 41.0623 25.45C41.8623 26.65 42.2623 28 42.2623 29.5C42.2623 31.9 41.4123 33.95 39.7123 35.65C38.1123 37.25 36.1623 38.05 33.8623 38.05C31.6623 38.05 29.8123 37.35 28.3123 35.95C26.9123 34.45 26.2123 32.6 26.2123 30.4C26.2123 29.1 26.4123 27.9 26.8123 26.8C27.2123 25.7 27.9123 24.25 28.9123 22.45L40.4623 0.699993H47.6623L38.0623 22.6Z" fill="url(#paint0_linear_29_44)"/>
<defs>
<linearGradient id="paint0_linear_29_44" x1="-32.5" y1="-10.5" x2="47.5" y2="46" gradientUnits="userSpaceOnUse">
<stop stop-color="#130CB7"/>
<stop offset="1" stop-color="#70F570"/>
</linearGradient>
</defs>
</svg>
